<?xml version="1.0" encoding="UTF-8" standalone="no"?>
<!-- Generator: Adobe Illustrator 19.0.0, SVG Export Plug-In . SVG Version: 6.00 Build 0)  -->

<svg
   xmlns:dc="http://purl.org/dc/elements/1.1/"
   xmlns:cc="http://creativecommons.org/ns#"
   xmlns:rdf="http://www.w3.org/1999/02/22-rdf-syntax-ns#"
   xmlns:svg="http://www.w3.org/2000/svg"
   xmlns="http://www.w3.org/2000/svg"
   xmlns:sodipodi="http://sodipodi.sourceforge.net/DTD/sodipodi-0.dtd"
   xmlns:inkscape="http://www.inkscape.org/namespaces/inkscape"
   version="1.1"
   id="Capa_1"
   x="0px"
   y="0px"
   viewBox="0 0 512 512"
   style="enable-background:new 0 0 512 512;"
   xml:space="preserve"
   sodipodi:docname="about me.svg"
   inkscape:version="0.92.5 (2060ec1f9f, 2020-04-08)"><metadata
   id="metadata55"><rdf:RDF><cc:Work
       rdf:about=""><dc:format>image/svg+xml</dc:format><dc:type
         rdf:resource="http://purl.org/dc/dcmitype/StillImage" /></cc:Work></rdf:RDF></metadata><defs
   id="defs53" /><sodipodi:namedview
   pagecolor="#ffffff"
   bordercolor="#666666"
   borderopacity="1"
   objecttolerance="10"
   gridtolerance="10"
   guidetolerance="10"
   inkscape:pageopacity="0"
   inkscape:pageshadow="2"
   inkscape:window-width="1366"
   inkscape:window-height="710"
   id="namedview51"
   showgrid="false"
   inkscape:zoom="0.4609375"
   inkscape:cx="256"
   inkscape:cy="238.64407"
   inkscape:window-x="0"
   inkscape:window-y="27"
   inkscape:window-maximized="1"
   inkscape:current-layer="Capa_1" />
<g
   id="g6"
   style="fill:#ffffff;fill-opacity:1">
	<g
   id="g4"
   style="fill:#ffffff;fill-opacity:1">
		<path
   d="M136,180c-41.353,0-76,33.647-76,75c0,41.353,34.647,75,76,75c41.353,0,76-33.647,76-75C212,213.647,177.353,180,136,180z    "
   id="path2"
   style="fill:#ffffff;fill-opacity:1" />
	</g>
</g>
<g
   id="g12"
   style="fill:#ffffff;fill-opacity:1">
	<g
   id="g10"
   style="fill:#ffffff;fill-opacity:1">
		<path
   d="M377,0c-74.443,0-135,60.557-135,135c0,23.218,5.933,45.879,17.197,65.977l-16.421,49.277    c-1.743,5.2-0.498,10.913,3.223,14.941c3.818,4.129,9.52,5.66,14.634,4.351l55.708-13.916C335.062,265.049,355.906,270,377,270    c74.443,0,135-60.557,135-135S451.443,0,377,0z M392,195c0,8.291-6.709,15-15,15c-8.291,0-15-6.709-15-15v-60    c0-8.291,6.709-15,15-15c8.291,0,15,6.709,15,15V195z M377,105c-8.284,0-15-6.716-15-15s6.716-15,15-15s15,6.716,15,15    S385.284,105,377,105z"
   id="path8"
   style="fill:#ffffff;fill-opacity:1" />
	</g>
</g>
<g
   id="g18"
   style="fill:#fffffb;fill-opacity:1">
	<g
   id="g16"
   style="fill:#fffffb;fill-opacity:1">
		<path
   d="M214.71,324.968C195.477,346.311,166.919,360,136,360s-59.477-13.689-78.71-35.032C22.747,349.444,0,389.535,0,435v62    c0,8.291,6.709,15,15,15h242c8.291,0,15-6.709,15-15v-62C272,389.535,249.253,349.444,214.71,324.968z"
   id="path14"
   style="fill:#fffffb;fill-opacity:1" />
	</g>
</g>
<g
   id="g20">
</g>
<g
   id="g22">
</g>
<g
   id="g24">
</g>
<g
   id="g26">
</g>
<g
   id="g28">
</g>
<g
   id="g30">
</g>
<g
   id="g32">
</g>
<g
   id="g34">
</g>
<g
   id="g36">
</g>
<g
   id="g38">
</g>
<g
   id="g40">
</g>
<g
   id="g42">
</g>
<g
   id="g44">
</g>
<g
   id="g46">
</g>
<g
   id="g48">
</g>
</svg>