<?xml version="1.0" encoding="UTF-8" standalone="no"?>
<!-- Generator: Adobe Illustrator 19.0.0, SVG Export Plug-In . SVG Version: 6.00 Build 0)  -->

<svg
   xmlns:dc="http://purl.org/dc/elements/1.1/"
   xmlns:cc="http://creativecommons.org/ns#"
   xmlns:rdf="http://www.w3.org/1999/02/22-rdf-syntax-ns#"
   xmlns:svg="http://www.w3.org/2000/svg"
   xmlns="http://www.w3.org/2000/svg"
   xmlns:sodipodi="http://sodipodi.sourceforge.net/DTD/sodipodi-0.dtd"
   xmlns:inkscape="http://www.inkscape.org/namespaces/inkscape"
   version="1.1"
   id="Capa_1"
   x="0px"
   y="0px"
   viewBox="0 0 512 512"
   style="enable-background:new 0 0 512 512;"
   xml:space="preserve"
   sodipodi:docname="menu.svg"
   inkscape:version="0.92.5 (2060ec1f9f, 2020-04-08)"><metadata
   id="metadata51"><rdf:RDF><cc:Work
       rdf:about=""><dc:format>image/svg+xml</dc:format><dc:type
         rdf:resource="http://purl.org/dc/dcmitype/StillImage" /></cc:Work></rdf:RDF></metadata><defs
   id="defs49" /><sodipodi:namedview
   pagecolor="#ffffff"
   bordercolor="#666666"
   borderopacity="1"
   objecttolerance="10"
   gridtolerance="10"
   guidetolerance="10"
   inkscape:pageopacity="0"
   inkscape:pageshadow="2"
   inkscape:window-width="1366"
   inkscape:window-height="710"
   id="namedview47"
   showgrid="false"
   inkscape:zoom="0.4609375"
   inkscape:cx="256"
   inkscape:cy="238.64407"
   inkscape:window-x="0"
   inkscape:window-y="27"
   inkscape:window-maximized="1"
   inkscape:current-layer="g12" />
<g
   transform="translate(1 1)"
   id="g14">
	<g
   id="g12">
		<g
   id="g10"
   style="fill:#3e9ade;fill-opacity:1">
			<path
   d="M20.333,52.333h469.333C501.449,52.333,511,42.782,511,31c0-11.782-9.551-21.333-21.333-21.333H20.333     C8.551,9.667-1,19.218-1,31C-1,42.782,8.551,52.333,20.333,52.333z"
   id="path2"
   style="fill:#3e9ade;fill-opacity:1" />
			<path
   d="M489.667,457.667H20.333C8.551,457.667-1,467.218-1,479s9.551,21.333,21.333,21.333h469.333     c11.782,0,21.333-9.551,21.333-21.333S501.449,457.667,489.667,457.667z"
   id="path4"
   style="fill:#3e9ade;fill-opacity:1" />
			<path
   d="M489.667,308.333H20.333C8.551,308.333-1,317.885-1,329.667C-1,341.449,8.551,351,20.333,351h469.333     c11.782,0,21.333-9.551,21.333-21.333C511,317.885,501.449,308.333,489.667,308.333z"
   id="path6"
   style="fill:#3e9ade;fill-opacity:1" />
			<path
   d="M489.667,159H20.333C8.551,159-1,168.551-1,180.333c0,11.782,9.551,21.333,21.333,21.333h469.333     c11.782,0,21.333-9.551,21.333-21.333C511,168.551,501.449,159,489.667,159z"
   id="path8"
   style="fill:#3e9ade;fill-opacity:1" />
		</g>
	</g>
</g>
<g
   id="g16">
</g>
<g
   id="g18">
</g>
<g
   id="g20">
</g>
<g
   id="g22">
</g>
<g
   id="g24">
</g>
<g
   id="g26">
</g>
<g
   id="g28">
</g>
<g
   id="g30">
</g>
<g
   id="g32">
</g>
<g
   id="g34">
</g>
<g
   id="g36">
</g>
<g
   id="g38">
</g>
<g
   id="g40">
</g>
<g
   id="g42">
</g>
<g
   id="g44">
</g>
</svg>