<?xml version="1.0" encoding="UTF-8" standalone="no"?>
<svg
   xmlns:dc="http://purl.org/dc/elements/1.1/"
   xmlns:cc="http://creativecommons.org/ns#"
   xmlns:rdf="http://www.w3.org/1999/02/22-rdf-syntax-ns#"
   xmlns:svg="http://www.w3.org/2000/svg"
   xmlns="http://www.w3.org/2000/svg"
   xmlns:sodipodi="http://sodipodi.sourceforge.net/DTD/sodipodi-0.dtd"
   xmlns:inkscape="http://www.inkscape.org/namespaces/inkscape"
   height="512"
   viewBox="0 0 192 192"
   width="512"
   version="1.1"
   id="svg22"
   sodipodi:docname="idea.svg"
   inkscape:version="0.92.5 (2060ec1f9f, 2020-04-08)">
  <metadata
     id="metadata28">
    <rdf:RDF>
      <cc:Work
         rdf:about="">
        <dc:format>image/svg+xml</dc:format>
        <dc:type
           rdf:resource="http://purl.org/dc/dcmitype/StillImage" />
      </cc:Work>
    </rdf:RDF>
  </metadata>
  <defs
     id="defs26" />
  <sodipodi:namedview
     pagecolor="#ffffff"
     bordercolor="#666666"
     borderopacity="1"
     objecttolerance="10"
     gridtolerance="10"
     guidetolerance="10"
     inkscape:pageopacity="0"
     inkscape:pageshadow="2"
     inkscape:window-width="1366"
     inkscape:window-height="710"
     id="namedview24"
     showgrid="false"
     inkscape:zoom="0.4609375"
     inkscape:cx="256"
     inkscape:cy="238.64407"
     inkscape:window-x="0"
     inkscape:window-y="27"
     inkscape:window-maximized="1"
     inkscape:current-layer="svg22" />
  <g
     id="_27-creativity"
     data-name="27-creativity"
     style="fill:#ffffff;fill-opacity:1">
    <g
       id="Glyph"
       style="fill:#ffffff;fill-opacity:1">
      <path
         d="m56 176a16 16 0 0 0 16 16h48a16 16 0 0 0 16-16v-8h-80z"
         id="path2"
         style="fill:#ffffff;fill-opacity:1" />
      <path
         d="m56 144h80v16h-80z"
         id="path4"
         style="fill:#ffffff;fill-opacity:1" />
      <path
         d="m176 56h16v16h-16z"
         id="path6"
         style="fill:#ffffff;fill-opacity:1" />
      <path
         d="m164.686 24h22.627v16h-22.627z"
         transform="matrix(.707 -.707 .707 .707 28.917 133.817)"
         id="path8"
         style="fill:#ffffff;fill-opacity:1" />
      <path
         d="m168 84.686h16v22.627h-16z"
         transform="matrix(.707 -.707 .707 .707 -16.333 152.569)"
         id="path10"
         style="fill:#ffffff;fill-opacity:1" />
      <path
         d="m0 56h16v16h-16z"
         id="path12"
         style="fill:#ffffff;fill-opacity:1" />
      <path
         d="m8 20.686h16v22.627h-16z"
         transform="matrix(.707 -.707 .707 .707 -17.941 20.686)"
         id="path14"
         style="fill:#ffffff;fill-opacity:1" />
      <path
         d="m4.686 88h22.627v16h-22.627z"
         transform="matrix(.707 -.707 .707 .707 -63.194 39.428)"
         id="path16"
         style="fill:#ffffff;fill-opacity:1" />
      <path
         d="m96 0a64 64 0 0 0 -32 119.427v16.573h24v-43.719l-20.438-13.625a8 8 0 0 1 -3.562-6.656v-16h16v11.719l16 10.666 16-10.666v-11.719h16v16a8 8 0 0 1 -3.563 6.656l-20.437 13.625v43.719h24v-16.573a64 64 0 0 0 -32-119.427zm24 40a8 8 0 1 1 8-8 8 8 0 0 1 -8 8z"
         id="path18"
         style="fill:#ffffff;fill-opacity:1" />
    </g>
  </g>
</svg>
